<svg version="1.1" width="1228" height="1228" xmlns="http://www.w3.org/2000/svg"
  xmlns:xlink="http://www.w3.org/1999/xlink" viewBox="0 0 1228 1228">
  <path stroke="none" fill="#ffffff" fill-rule="evenodd"
    d="M 653 186.631 C 609.836 190.625, 600.635 192.807, 585.981 202.524 C 579.027 207.135, 567.550 218.290, 561.313 226.500 C 554.546 235.409, 539 258.241, 539 259.272 C 539 259.823, 541.231 258.187, 543.957 255.637 C 550.327 249.679, 551.250 249.725, 546.224 255.750 C 541.655 261.227, 532.381 275.223, 531.517 277.945 C 531.166 279.054, 528.960 280.437, 526.002 281.405 C 516.871 284.391, 484.050 301.362, 484.013 303.116 C 484 303.754, 487.981 302.711, 508.841 296.610 C 520.177 293.294, 524 292.466, 524 293.325 C 524 293.504, 522.857 296.991, 521.461 301.075 C 520.064 305.159, 517.128 315.211, 514.936 323.413 C 510.435 340.250, 509.382 342.889, 502.129 355.498 C 486.629 382.448, 483.926 407.702, 490.705 462.250 C 492.261 474.771, 493.297 478.182, 494.502 474.750 C 495.118 472.997, 497.685 452.307, 499.497 434.500 C 503.960 390.638, 506.096 381.735, 517.486 359.500 C 523.118 348.506, 525.260 343.031, 527.465 334 C 531.060 319.276, 534.428 308.368, 538.193 299.250 C 541.817 290.474, 539.923 290.747, 567.524 295.029 C 623.934 303.781, 658.593 311.690, 689.500 322.864 C 695.550 325.052, 703.425 327.889, 707 329.171 C 710.575 330.452, 713.650 331.837, 713.833 332.250 C 714.017 332.663, 715.254 333, 716.583 333 C 717.913 333, 719 333.367, 719 333.815 C 719 334.789, 725.484 338, 727.451 338 C 728.211 338, 728.983 338.347, 729.167 338.772 C 729.697 340, 744.757 346.933, 752.650 349.582 C 763.436 353.203, 771.301 352.605, 762.822 348.809 C 757.695 346.514, 733.555 328.648, 734.952 328.183 C 735.507 327.998, 738.401 328.556, 741.384 329.423 C 744.367 330.290, 747.976 331, 749.404 331 C 750.832 331, 752 331.450, 752 332 C 752 332.550, 752.900 333, 754 333 C 755.100 333, 756 333.353, 756 333.784 C 756 334.216, 757.462 335.427, 759.250 336.476 C 763.555 339.003, 768.508 344.559, 770.860 349.500 C 775.732 359.736, 775.945 371.911, 771.952 412 C 769.158 440.062, 767.760 466.968, 768.497 478.500 C 769.152 488.738, 771.420 504.253, 772.522 506.036 C 773.703 507.946, 775 505.854, 775 502.040 C 775 499.927, 776.984 486.341, 779.408 471.849 C 784.308 442.561, 785.846 430.818, 786.523 417.500 C 788.824 372.284, 789.020 364.376, 788.016 357.155 C 785.958 342.342, 778.005 330.932, 765.697 325.131 C 757.004 321.034, 750.902 320, 735.415 320 L 721.929 320 712.416 315.434 C 685.902 302.708, 628.666 289.176, 566.500 280.936 C 557.150 279.696, 549.332 278.548, 549.126 278.384 C 548.647 278.001, 559.192 260.780, 568.929 246.043 C 573.093 239.741, 580.264 230.629, 584.864 225.793 C 589.464 220.957, 592.933 217, 592.574 217 C 592.214 217, 590.026 217.920, 587.710 219.045 C 584.865 220.427, 584.149 220.568, 585.500 219.481 C 589.558 216.217, 605.731 208.982, 613.236 207.073 C 617.490 205.991, 626.093 204.189, 632.353 203.068 C 638.613 201.948, 649.517 199.693, 656.585 198.057 C 663.652 196.422, 669.674 195.445, 669.967 195.886 C 670.432 196.584, 686.677 198.682, 705.500 200.474 C 708.800 200.788, 723.425 201.695, 738 202.489 C 767.558 204.099, 775.068 205.496, 787.359 211.674 C 801.553 218.809, 811.340 226.711, 817.435 235.959 C 823.003 244.405, 824.914 248.819, 832.180 270 C 839.529 291.423, 842.752 297.659, 849.810 304.110 C 856.322 310.061, 858.789 309.452, 854.144 303.040 C 849.987 297.302, 848.468 292.103, 845.509 273.500 C 841.864 250.580, 838.398 239.459, 831.480 228.478 C 824.255 217.008, 808.726 204.516, 791.734 196.504 C 780.203 191.066, 773.431 189.315, 758.935 188.020 C 746.921 186.946, 744.074 187.049, 713.500 189.659 L 694.500 191.281 687.500 189.064 C 680.454 186.832, 663.638 185.646, 653 186.631 M 832 317.804 C 832 318.354, 833.237 319.239, 834.750 319.770 C 844.637 323.241, 861.896 331.850, 865.153 334.935 C 870.514 340.013, 871.610 343.593, 872.982 360.500 C 874.123 374.558, 874.064 376.254, 872.038 387.500 C 870.566 395.672, 869.590 406.837, 868.976 422.500 C 868.481 435.150, 867.598 453.552, 867.015 463.394 C 866.432 473.236, 866.153 481.487, 866.396 481.730 C 867.116 482.449, 868.660 478.973, 871.847 469.461 C 877.906 451.382, 880.898 437.917, 883.507 417 C 884.365 410.125, 886.208 398.444, 887.603 391.041 C 888.997 383.639, 890.138 374.414, 890.138 370.541 C 890.136 360.708, 886.421 342.569, 883.191 336.621 C 880.047 330.831, 873.867 325.842, 866.358 323.033 C 857.584 319.750, 832 315.856, 832 317.804 M 511.500 410.394 C 504.267 412.673, 499.849 416.580, 505.865 415.377 C 510.348 414.480, 521.785 416.645, 535.384 420.963 C 552.943 426.539, 561.710 427.616, 575.422 425.881 C 581.450 425.119, 586.510 423.996, 586.714 423.376 C 586.946 422.667, 583.465 421.609, 577.291 420.514 C 571.906 419.559, 563.450 417.503, 558.500 415.945 C 540.820 410.382, 533.988 408.997, 524.562 409.067 C 519.578 409.104, 513.700 409.701, 511.500 410.394 M 661.871 436.017 C 654.163 437.320, 641 444.200, 641 446.927 C 641 447.381, 643.813 447.149, 647.250 446.411 C 658.822 443.928, 682.362 445.086, 698.480 448.931 C 702.868 449.978, 706.834 450.603, 707.292 450.320 C 708.494 449.577, 702.580 445.387, 694.615 441.339 C 683.813 435.848, 673.139 434.113, 661.871 436.017 M 519.250 453.459 C 514.163 456.019, 510 458.577, 510 459.144 C 510 460.307, 515.172 459.666, 524.323 457.369 C 527.526 456.565, 534.629 455.634, 540.109 455.300 C 545.588 454.967, 550.277 454.360, 550.529 453.953 C 551.410 452.527, 542.438 449.732, 535.500 449.271 C 528.753 448.823, 528.166 448.974, 519.250 453.459 M 523 463.923 C 523 466.454, 529.068 471.454, 536.359 474.929 C 547.029 480.016, 555.569 482, 566.788 482 L 575.949 482 577.500 479 C 578.353 477.350, 578.927 475.982, 578.776 475.960 C 567.223 474.297, 528.328 465.789, 526.349 464.493 C 523.708 462.763, 523 462.642, 523 463.923 M 640.814 468.007 C 634.816 468.541, 631.165 470.560, 627.629 475.295 C 624.875 478.984, 626.119 479.623, 630.865 476.956 C 634.317 475.016, 635.722 474.801, 641.181 475.382 C 661.324 477.526, 670.929 476.925, 680.500 472.924 C 683.314 471.747, 682.757 471.564, 671.500 469.962 C 656.899 467.884, 648.321 467.338, 640.814 468.007 M 584.413 487.250 C 580.721 493.434, 570.384 506.887, 560.403 518.500 C 554.752 525.074, 549.545 534.577, 548.478 540.264 C 547.828 543.731, 548.506 543.204, 562.718 529.202 C 581.339 510.856, 586.545 502.203, 589.464 484.750 C 590.381 479.262, 588.680 480.104, 584.413 487.250 M 858.657 488.750 C 857.320 493.012, 855.917 498.380, 855.538 500.677 L 854.849 504.855 842.674 509.300 C 827.234 514.938, 819.354 517.433, 810.250 519.569 C 806.263 520.505, 803 521.639, 803 522.090 C 803 524.957, 832.374 525.363, 843.500 522.651 C 847.350 521.712, 851.288 520.701, 852.250 520.404 C 853.690 519.961, 854 520.496, 854 523.433 C 854 525.937, 853.553 527, 852.500 527 C 850.618 527, 850.622 527.494, 852.531 530.407 C 853.490 531.870, 854.445 537.189, 855.085 544.622 C 855.647 551.155, 856.462 558.750, 856.896 561.500 C 857.671 566.415, 857.703 566.453, 858.827 563.723 C 859.456 562.196, 860.493 557.021, 861.131 552.223 C 862.112 544.841, 862.050 542.654, 860.727 538 C 859.291 532.950, 859.303 531.858, 860.872 524.647 C 862.240 518.363, 863.058 516.540, 864.964 515.519 C 867.482 514.171, 867.777 513.390, 868.700 505.616 L 869.280 500.732 866.140 501.193 L 863 501.654 863 491.327 C 863 485.422, 862.590 481, 862.044 481 C 861.517 481, 859.993 484.488, 858.657 488.750 M 490.639 487.250 C 490.289 490.137, 488.418 497.411, 486.481 503.413 C 478.794 527.234, 476.442 541.325, 477.284 558.500 C 477.908 571.228, 479.379 576.250, 487.928 594.850 C 493.928 607.905, 499.039 622.449, 500.957 631.930 C 501.562 634.916, 502.951 644.331, 504.045 652.852 C 505.139 661.372, 506.702 670.919, 507.517 674.066 C 508.333 677.214, 509 680.003, 509 680.266 C 509 680.528, 504.064 681.063, 498.031 681.454 C 482.608 682.453, 471.014 686.012, 466.335 691.182 C 464.119 693.631, 460.135 693.475, 457.318 690.829 C 454.815 688.478, 452.918 688.991, 454.970 691.464 C 456.510 693.319, 457.987 692.881, 436.500 696.938 C 406.211 702.656, 371.445 711.165, 350 718.107 C 336.375 722.518, 312.731 732.786, 288.500 744.814 C 266.677 755.646, 260.336 758.656, 245.906 765.028 C 221.867 775.644, 212.322 781.563, 202.998 791.637 C 193.902 801.464, 188.589 813.410, 184.155 834 C 182.277 842.723, 178.006 872.877, 178.002 877.450 C 177.998 881.110, 179.770 877.596, 182.902 867.732 C 186.957 854.963, 197.100 827.046, 200.324 819.782 C 204.561 810.234, 211.487 800.500, 217.750 795.288 C 224.382 789.768, 235.362 783.909, 260.500 772.476 C 269.850 768.223, 284.025 761.480, 292 757.492 C 326.215 740.383, 355.555 728.374, 368.009 726.383 C 370.229 726.028, 372.290 725.339, 372.591 724.852 C 372.892 724.366, 373.524 724.206, 373.995 724.497 C 374.952 725.088, 400.853 718.592, 414 714.463 C 424.215 711.255, 446.306 702.569, 450.530 700.099 C 454.190 697.959, 459 696.647, 459 697.790 C 459 698.245, 457.650 702.316, 456 706.837 C 454.350 711.358, 453 715.573, 453 716.203 C 453 717.707, 457.338 713.595, 460.223 709.357 C 461.476 707.518, 462.950 706.040, 463.500 706.072 C 464.050 706.105, 466.665 708.914, 469.311 712.315 C 476.135 721.089, 493.839 737.046, 505 744.483 C 510.225 747.965, 521.250 754.287, 529.500 758.533 C 568.724 778.720, 569.779 779.472, 596 805.942 C 620.865 831.043, 624.284 833.327, 639.605 835.068 C 644.295 835.601, 648.478 835.822, 648.902 835.561 C 649.325 835.299, 653.458 835.020, 658.086 834.940 C 673.545 834.675, 705.872 828.116, 715.340 823.325 C 718.002 821.977, 722.107 819.099, 724.461 816.929 L 728.742 812.983 740.621 814.941 C 747.154 816.018, 755.760 817.205, 759.744 817.578 C 765.412 818.110, 767.588 818.791, 769.744 820.709 C 780.003 829.837, 789.474 835.345, 808.020 842.968 C 833.125 853.288, 839.128 859.315, 850.487 885.610 C 856.186 898.802, 861.802 909.312, 872.334 926.500 C 876.716 933.650, 881.605 941.694, 883.199 944.376 C 888.462 953.232, 893.692 960.402, 900.430 968 C 904.088 972.125, 910.749 981.017, 915.231 987.759 C 919.714 994.502, 923.746 999.654, 924.192 999.208 C 925.576 997.824, 916.514 972.613, 911.111 962.816 C 908.285 957.692, 902.546 946.750, 898.358 938.500 C 894.170 930.250, 888.482 919.900, 885.718 915.500 C 882.954 911.100, 879.985 906.375, 879.120 905 C 878.255 903.625, 873.146 893.778, 867.767 883.117 C 856.685 861.156, 851.918 853.959, 842.813 845.441 C 835.239 838.356, 826.957 833.829, 809.022 826.971 C 790.959 820.064, 781.753 815.271, 771.327 807.345 C 766.472 803.655, 759.057 798.017, 754.849 794.818 C 743.142 785.916, 743.025 786.876, 754.029 801.538 C 758.444 807.422, 761.482 812.008, 760.779 811.730 C 744.113 805.141, 740.360 803.580, 739.635 802.936 C 739.159 802.514, 740.056 800.482, 741.629 798.420 C 743.202 796.358, 744.041 794.867, 743.494 795.108 C 742.947 795.349, 740.389 796.625, 737.808 797.944 L 733.116 800.342 729.076 797.669 C 726.798 796.162, 724.759 793.886, 724.398 792.450 C 722.904 786.497, 727.839 771.153, 744.484 730 C 749.267 718.175, 756.067 700.046, 759.596 689.714 C 767.697 665.996, 781.167 638.309, 790.228 626.750 C 794.100 621.811, 792.544 622.011, 785.360 627.376 C 778.076 632.815, 773.059 638.102, 764.845 649 C 753.149 664.515, 751.011 668.880, 738.140 703.500 C 734.868 712.300, 729.422 726.025, 726.036 734 C 717.134 754.972, 710.906 771.624, 709.391 778.500 C 706.368 792.228, 708.524 801.319, 716.035 806.524 C 718.216 808.036, 720 809.399, 720 809.554 C 720 809.710, 717.188 810.755, 713.750 811.876 C 706 814.405, 663.762 819, 648.268 819 C 632.318 819, 629.419 817.360, 610.159 797.435 C 584.549 770.941, 579.243 767.174, 539.197 747.046 C 510.125 732.434, 485.101 716.964, 473.043 706.147 L 467.586 701.252 471.952 699.024 C 474.354 697.799, 483.230 695.054, 491.677 692.924 C 500.125 690.794, 507.935 688.570, 509.035 687.981 C 511.223 686.811, 511.830 687.868, 516.937 701.737 C 518.200 705.167, 519.679 707.698, 520.224 707.362 C 520.768 707.025, 520.828 706.469, 520.357 706.125 C 519.886 705.781, 519.494 703.475, 519.488 701 C 519.481 698.525, 519.141 693.925, 518.732 690.778 C 517.990 685.064, 517.993 685.055, 521.245 683.281 L 524.500 681.505 521.352 681.197 C 517.769 680.846, 517.035 679.253, 517.014 671.781 C 517.003 668.082, 517.311 667.182, 518.440 667.615 C 520.912 668.564, 523.112 672.920, 525.497 681.590 C 529.820 697.303, 534.821 704.391, 547.624 712.955 C 561.034 721.924, 572.093 726.717, 589.500 731.106 C 598.300 733.325, 608.875 736.015, 613 737.084 C 622.544 739.556, 634.846 739.738, 641.500 737.504 C 646.828 735.715, 669.211 724.335, 680.006 717.925 C 683.584 715.801, 690.613 712.284, 695.625 710.109 C 723.458 698.038, 734.071 689.953, 747.419 670.656 C 749.114 668.206, 759.050 655.060, 769.500 641.442 C 779.950 627.823, 788.783 616.252, 789.129 615.728 C 789.512 615.147, 792.531 615.488, 796.852 616.602 C 802.935 618.169, 804.606 618.253, 808.578 617.190 C 821.620 613.702, 838.039 594.466, 842.459 577.496 C 844.355 570.217, 844.675 544.608, 842.862 545.213 C 842.236 545.421, 840.044 550.746, 837.991 557.046 C 832.973 572.447, 831.832 574.888, 824.232 586.500 C 817.119 597.367, 810.292 605.542, 806.138 608.168 C 803.310 609.955, 794 611.724, 794 610.474 C 794 610.060, 796.519 606.603, 799.598 602.792 C 802.677 598.981, 804.938 595.605, 804.622 595.289 C 803.878 594.544, 777.963 615.494, 767.072 625.645 C 757.090 634.948, 744.485 648.933, 736.406 659.668 C 723.121 677.320, 716.822 682.632, 700.354 690.071 C 694.961 692.507, 685.138 697.308, 678.524 700.739 C 638.675 721.417, 636.198 722.505, 629.101 722.439 C 624.560 722.397, 616.161 720.747, 602.194 717.154 C 578.576 711.078, 574.454 709.655, 559.076 702.269 C 545.454 695.726, 539.456 690.244, 533.608 678.990 C 528.821 669.776, 524.671 665.216, 520.330 664.402 L 517.033 663.784 517.107 647.642 C 517.213 624.767, 514.005 611.899, 501.658 585.668 C 493.790 568.953, 492.746 564.623, 492.217 546.500 C 491.949 537.342, 492.301 524.299, 493.040 516 C 494.544 499.115, 494.712 490.971, 493.663 485.750 C 492.605 480.483, 491.386 481.087, 490.639 487.250 M 634 482.719 C 634 484.844, 639.152 487.921, 650 492.275 C 666.367 498.844, 669.112 499.364, 684.173 498.753 C 697.044 498.231, 702.316 496.805, 696.395 495.447 C 688.145 493.555, 672.482 489.579, 664.694 487.401 C 659.850 486.046, 651.750 484.539, 646.694 484.052 C 641.637 483.565, 636.712 482.855, 635.750 482.476 C 634.788 482.096, 634 482.206, 634 482.719 M 618.544 487.250 C 616.585 498.911, 616.014 504.502, 616.008 512.112 C 616.001 519.448, 616.453 521.820, 619.055 528.112 C 621.900 534.993, 629.075 557.783, 629.369 560.875 C 629.441 561.632, 627.751 562.867, 625.614 563.620 C 621.980 564.901, 621.331 564.812, 615.619 562.245 C 610.060 559.747, 608.438 559.500, 597.592 559.500 C 584.485 559.500, 581.448 560.867, 590.226 562.816 C 593.127 563.460, 600.734 565.627, 607.132 567.632 C 620.533 571.831, 622.190 571.709, 628.309 566.072 L 632.500 562.212 631.869 546.356 C 631.325 532.698, 630.881 529.563, 628.668 523.739 C 627.164 519.781, 625.441 511.925, 624.512 504.786 C 622.027 485.683, 619.872 479.350, 618.544 487.250 M 777.871 491.250 C 775.276 497.401, 776.306 504.086, 781.444 514.438 C 786.858 525.349, 791.813 532.603, 793.003 531.362 C 794.421 529.884, 790.189 515.525, 785.490 505.870 C 782.285 499.286, 781 495.408, 781 492.323 C 781 487.185, 779.765 486.762, 777.871 491.250 M 543 546.787 C 543 547.220, 546.038 549.305, 549.750 551.420 C 553.462 553.535, 559.475 557.452, 563.111 560.125 C 571.853 566.550, 579.803 570.081, 586.991 570.733 C 597.160 571.655, 597.457 570.435, 588.258 565.520 C 583.757 563.115, 578.115 559.799, 575.720 558.151 C 568.454 553.152, 559.884 549.292, 552.303 547.603 C 544.129 545.783, 543 545.684, 543 546.787 M 822.793 550.263 C 812.048 556.170, 806.323 560.420, 804.028 564.194 C 800.122 570.617, 797.734 586.766, 800.050 591.094 C 801.293 593.415, 803.015 592.772, 802.351 590.234 C 802.097 589.263, 803.264 585.238, 804.945 581.289 C 806.625 577.341, 808 573.338, 808 572.394 C 808 571.450, 813.489 565.126, 820.199 558.339 C 826.908 551.553, 831.971 546.006, 831.449 546.013 C 830.927 546.020, 827.032 547.932, 822.793 550.263 M 830.269 557.469 C 828.213 560.644, 817.610 584.068, 816.281 588.370 C 815.723 590.180, 815.792 590.182, 818.436 588.450 C 822.415 585.843, 827.652 578.568, 829.428 573.182 C 831.343 567.373, 833.903 553.996, 833.096 554.012 C 832.768 554.019, 831.496 555.575, 830.269 557.469 M 562 588.691 C 554.552 589.938, 540 596.112, 540 598.026 C 540 598.653, 542.112 598.743, 545.750 598.270 C 548.913 597.859, 555.325 597.522, 560 597.521 C 567.575 597.519, 569.262 597.883, 575.500 600.860 C 585.358 605.564, 609.698 613.847, 618.760 615.581 C 626.085 616.983, 627.289 617.599, 632.960 622.852 C 634.357 624.146, 637.750 626.684, 640.500 628.492 C 643.250 630.301, 646.584 632.948, 647.910 634.374 L 650.319 636.969 646.410 638.606 C 641.032 640.859, 631.154 640.057, 608.072 635.493 C 584.092 630.751, 578.361 628.528, 560 616.845 C 556.975 614.920, 552.578 612.593, 550.230 611.673 C 545.556 609.842, 537 609.407, 537 611 C 537 611.550, 537.788 612.002, 538.750 612.004 C 541.722 612.010, 546.247 615.373, 557.420 625.878 C 576.232 643.567, 589.911 648.308, 622.500 648.432 C 639.430 648.496, 640.779 648.361, 645.200 646.163 C 649.723 643.915, 663.523 632.190, 662.662 631.328 C 662.431 631.097, 660.092 631.942, 657.465 633.204 C 653.899 634.918, 652.578 635.177, 652.253 634.227 C 651.122 630.917, 634.458 608.681, 631.989 607.185 C 630.795 606.461, 625.252 604.280, 619.671 602.337 C 614.091 600.395, 608.342 598.194, 606.897 597.447 C 605.451 596.699, 599.371 594.944, 593.384 593.547 C 587.398 592.150, 580.039 590.330, 577.032 589.503 C 571.758 588.053, 567.261 587.810, 562 588.691"></path>
</svg>