<?xml version="1.0" standalone="no"?>
<!DOCTYPE svg PUBLIC "-//W3C//DTD SVG 1.1//EN" "http://www.w3.org/Graphics/SVG/1.1/DTD/svg11.dtd">
<svg version="1.1" xmlns="http://www.w3.org/2000/svg" viewBox="0 0 204.93454367255498 181.59895456560804" width="409.86908734510996" height="363.1979091312161">
  <g transform="translate(26.918302102536586 123.76099689636663) rotate(0 19.83525074090494 -32.37812988588897)" stroke="none">
  <path fill="#ffffff" d="M -3.10,-1.66 Q -3.10,-1.66 -1.92,-3.85 -0.75,-6.03 0.46,-8.04 1.67,-10.05 2.82,-12.02 3.98,-13.99 5.14,-16.01 6.30,-18.02 7.73,-20.03 9.16,-22.04 10.61,-23.90 12.06,-25.76 13.24,-27.57 14.42,-29.39 15.64,-31.23 16.85,-33.07 18.80,-36.27 20.75,-39.48 22.00,-42.13 23.24,-44.79 25.01,-47.57 26.77,-50.35 27.99,-52.55 29.21,-54.76 30.59,-57.18 31.96,-59.60 33.16,-61.43 34.35,-63.26 35.37,-64.49 36.38,-65.72 36.60,-65.95 36.81,-66.18 37.08,-66.35 37.34,-66.53 37.64,-66.63 37.94,-66.73 38.26,-66.76 38.57,-66.79 38.89,-66.75 39.20,-66.70 39.49,-66.58 39.78,-66.46 40.04,-66.27 40.30,-66.08 40.50,-65.84 40.70,-65.60 40.84,-65.31 40.98,-65.03 41.05,-64.72 41.11,-64.41 41.11,-64.09 41.10,-63.78 41.01,-63.47 40.93,-63.17 40.77,-62.89 40.62,-62.62 39.77,-62.10 38.92,-61.57 38.49,-61.58 38.07,-61.58 37.67,-61.71 37.26,-61.85 36.93,-62.11 36.59,-62.37 36.35,-62.72 36.11,-63.07 36.00,-63.48 35.89,-63.89 35.91,-64.31 35.93,-64.74 36.09,-65.13 36.25,-65.53 36.53,-65.85 36.80,-66.17 37.17,-66.39 37.53,-66.61 37.95,-66.70 38.36,-66.79 38.78,-66.74 39.21,-66.70 39.59,-66.52 39.98,-66.34 40.29,-66.05 40.59,-65.75 40.79,-65.38 40.99,-65.00 41.06,-64.58 41.13,-64.16 41.06,-63.74 40.99,-63.32 40.79,-62.95 40.59,-62.57 40.28,-62.28 39.97,-61.99 39.58,-61.81 39.20,-61.64 38.77,-61.59 38.35,-61.55 37.94,-61.64 37.52,-61.73 37.16,-61.95 36.79,-62.17 36.52,-62.49 36.24,-62.82 36.09,-63.21 35.93,-63.61 35.91,-64.03 35.89,-64.46 36.00,-64.87 36.12,-65.28 36.36,-65.63 36.60,-65.98 36.93,-66.24 37.27,-66.49 36.83,-66.11 36.38,-65.72 36.60,-65.95 36.81,-66.18 37.08,-66.35 37.34,-66.53 37.64,-66.63 37.94,-66.73 38.26,-66.76 38.57,-66.79 38.89,-66.75 39.20,-66.70 39.49,-66.58 39.78,-66.46 40.04,-66.27 40.30,-66.08 40.50,-65.84 40.70,-65.60 40.84,-65.31 40.98,-65.03 41.05,-64.72 41.11,-64.41 41.11,-64.09 41.10,-63.78 41.01,-63.47 40.93,-63.17 40.77,-62.89 40.62,-62.62 39.71,-59.81 38.81,-57.00 37.67,-55.14 36.54,-53.29 35.33,-51.13 34.11,-48.97 32.57,-46.54 31.03,-44.11 29.67,-41.48 28.31,-38.85 26.60,-35.90 24.89,-32.95 23.81,-31.07 22.73,-29.18 21.52,-27.36 20.32,-25.54 18.97,-23.48 17.61,-21.42 15.01,-17.96 12.40,-14.50 11.23,-12.46 10.06,-10.43 8.88,-8.42 7.70,-6.40 6.57,-4.54 5.44,-2.69 4.27,-0.51 3.10,1.66 2.85,2.01 2.61,2.36 2.29,2.64 1.96,2.91 1.59,3.11 1.21,3.30 0.80,3.40 0.38,3.50 -0.03,3.49 -0.46,3.49 -0.87,3.38 -1.28,3.27 -1.65,3.07 -2.03,2.87 -2.34,2.59 -2.66,2.30 -2.89,1.95 -3.13,1.60 -3.28,1.20 -3.42,0.80 -3.47,0.38 -3.52,-0.03 -3.46,-0.45 -3.41,-0.87 -3.25,-1.27 -3.10,-1.67 -3.10,-1.67 L -3.10,-1.66 Z"></path></g>
  
  <g transform="translate(10 90.50778241896711) rotate(0 19.83525074090494 -1.7501691830210007)" stroke="none">
  <path fill="#ffffff" d="M -0.20,-3.51 Q -0.20,-3.51 2.64,-3.68 5.49,-3.85 9.08,-4.34 12.67,-4.83 15.87,-5.24 19.08,-5.66 21.62,-5.97 24.17,-6.29 26.35,-6.58 28.53,-6.87 30.95,-6.94 33.36,-7.01 36.51,-6.56 39.67,-6.12 40.08,-6.05 40.50,-5.98 40.88,-5.79 41.26,-5.59 41.55,-5.28 41.84,-4.97 42.02,-4.58 42.20,-4.20 42.24,-3.78 42.29,-3.35 42.20,-2.94 42.11,-2.52 41.89,-2.16 41.67,-1.79 41.34,-1.52 41.02,-1.24 40.62,-1.09 40.23,-0.93 39.81,-0.91 39.38,-0.88 38.97,-1.00 38.56,-1.11 38.21,-1.35 37.86,-1.59 37.60,-1.93 37.34,-2.27 37.21,-2.67 37.07,-3.07 37.07,-3.50 37.07,-3.92 37.21,-4.32 37.34,-4.73 37.60,-5.06 37.86,-5.40 38.21,-5.64 38.56,-5.88 38.97,-5.99 39.38,-6.11 39.81,-6.08 40.23,-6.06 40.63,-5.90 41.02,-5.75 41.34,-5.47 41.67,-5.20 41.89,-4.83 42.11,-4.47 42.20,-4.05 42.29,-3.64 42.24,-3.21 42.20,-2.79 42.02,-2.41 41.84,-2.02 41.55,-1.71 41.25,-1.40 40.88,-1.20 40.50,-1.01 40.08,-0.94 39.66,-0.87 39.67,-0.87 39.67,-0.87 35.88,-0.41 32.09,0.04 29.76,0.16 27.42,0.27 24.99,0.57 22.56,0.88 19.76,1.21 16.97,1.55 13.59,2.11 10.21,2.68 8.06,2.93 5.90,3.18 3.05,3.34 0.20,3.51 -0.21,3.48 -0.64,3.46 -1.04,3.33 -1.45,3.20 -1.81,2.98 -2.17,2.76 -2.47,2.46 -2.77,2.16 -2.99,1.80 -3.21,1.44 -3.33,1.03 -3.46,0.62 -3.49,0.20 -3.51,-0.21 -3.43,-0.63 -3.36,-1.05 -3.18,-1.44 -3.01,-1.82 -2.74,-2.16 -2.48,-2.49 -2.15,-2.75 -1.81,-3.01 -1.42,-3.19 -1.04,-3.36 -0.62,-3.44 -0.20,-3.51 -0.20,-3.51 L -0.20,-3.51 Z"></path></g>
  
  <g transform="translate(31.002030196252292 44.41999393274682) rotate(0 37.628637434952054 -2.3335589106947054)" stroke="none">
  <path fill="#ffffff" d="M 0,-3.52 Q 0,-3.52 2.68,-3.52 5.36,-3.52 7.51,-3.52 9.66,-3.52 13.66,-3.68 17.66,-3.84 20.02,-4.08 22.37,-4.31 24.52,-4.58 26.67,-4.84 28.94,-5.12 31.21,-5.41 35.36,-5.59 39.52,-5.77 42.37,-5.96 45.22,-6.15 47.98,-6.27 50.73,-6.39 53.61,-6.41 56.48,-6.43 58.76,-6.57 61.05,-6.71 64.00,-7.13 66.96,-7.54 69.29,-7.80 71.62,-8.05 72.98,-7.66 74.35,-7.27 74.66,-7.27 74.98,-7.27 75.29,-7.19 75.60,-7.12 75.88,-6.97 76.16,-6.83 76.40,-6.62 76.63,-6.41 76.81,-6.15 76.99,-5.89 77.11,-5.59 77.22,-5.29 77.26,-4.98 77.30,-4.67 77.26,-4.35 77.22,-4.04 77.11,-3.74 77.00,-3.44 76.82,-3.18 76.64,-2.92 76.40,-2.71 76.16,-2.50 75.88,-2.36 75.60,-2.21 75.30,-2.13 74.99,-2.06 73.52,-3.27 72.05,-4.49 72.09,-4.91 72.13,-5.34 72.30,-5.72 72.48,-6.11 72.77,-6.42 73.05,-6.73 73.43,-6.94 73.80,-7.14 74.22,-7.21 74.64,-7.29 75.06,-7.22 75.48,-7.16 75.86,-6.97 76.23,-6.77 76.53,-6.47 76.83,-6.16 77.01,-5.78 77.19,-5.39 77.24,-4.97 77.29,-4.55 77.21,-4.13 77.12,-3.72 76.91,-3.35 76.69,-2.99 76.37,-2.71 76.05,-2.43 75.66,-2.27 75.26,-2.10 74.84,-2.08 74.42,-2.05 74.00,-2.16 73.59,-2.27 73.24,-2.50 72.88,-2.73 72.62,-3.07 72.36,-3.41 72.22,-3.81 72.08,-4.21 72.08,-4.63 72.07,-5.06 72.20,-5.46 72.33,-5.87 72.59,-6.21 72.84,-6.55 73.19,-6.79 73.54,-7.03 73.95,-7.15 74.35,-7.27 74.78,-7.25 75.20,-7.23 75.60,-7.08 76.00,-6.93 76.32,-6.66 76.65,-6.39 76.87,-6.02 77.10,-5.66 75.72,-6.47 74.35,-7.27 74.66,-7.27 74.98,-7.27 75.29,-7.19 75.60,-7.12 75.88,-6.97 76.16,-6.83 76.39,-6.62 76.63,-6.41 76.81,-6.15 76.99,-5.89 77.11,-5.59 77.22,-5.29 77.26,-4.98 77.30,-4.67 77.26,-4.35 77.22,-4.04 77.11,-3.74 77.00,-3.45 76.82,-3.18 76.64,-2.92 76.40,-2.71 76.16,-2.50 75.88,-2.36 75.60,-2.21 75.30,-2.13 74.99,-2.06 73.41,-1.54 71.83,-1.02 69.56,-0.76 67.29,-0.51 64.83,-0.15 62.37,0.20 59.44,0.40 56.50,0.60 53.72,0.62 50.93,0.65 48.49,0.74 46.05,0.84 42.87,1.05 39.70,1.26 35.89,1.42 32.07,1.57 29.80,1.86 27.53,2.14 25.30,2.41 23.07,2.69 20.65,2.93 18.24,3.17 13.95,3.34 9.66,3.52 7.51,3.52 5.36,3.52 2.68,3.52 0,3.52 -0.42,3.47 -0.84,3.41 -1.23,3.26 -1.63,3.11 -1.98,2.87 -2.33,2.63 -2.61,2.31 -2.89,2.00 -3.09,1.62 -3.29,1.24 -3.39,0.83 -3.49,0.42 -3.49,-0.00 -3.49,-0.42 -3.39,-0.83 -3.29,-1.24 -3.09,-1.62 -2.89,-2.00 -2.61,-2.31 -2.33,-2.63 -1.98,-2.87 -1.63,-3.11 -1.23,-3.26 -0.84,-3.41 -0.42,-3.47 0.00,-3.52 0.00,-3.52 L 0,-3.52 Z"></path></g>
  
  <g transform="translate(67.75558303969382 39.75287611135741) rotate(0 -8.750845915105117 -14.876438055678705)" stroke="none">
  <path fill="#ffffff" d="M -2.70,2.25 Q -2.70,2.25 -4.38,0.24 -6.06,-1.77 -7.25,-3.66 -8.44,-5.56 -10.00,-8.83 -11.56,-12.10 -12.57,-14.63 -13.57,-17.15 -14.35,-19.49 -15.13,-21.83 -16.27,-23.80 -17.40,-25.76 -18.46,-26.34 -19.52,-26.91 -19.69,-27.18 -19.86,-27.44 -19.97,-27.74 -20.07,-28.04 -20.09,-28.36 -20.12,-28.67 -20.07,-28.99 -20.02,-29.30 -19.90,-29.59 -19.78,-29.88 -19.59,-30.14 -19.40,-30.39 -19.16,-30.59 -18.91,-30.79 -18.63,-30.93 -18.34,-31.07 -18.03,-31.13 -17.72,-31.20 -17.40,-31.19 -17.09,-31.18 -16.78,-31.09 -16.48,-31.00 -16.20,-30.85 -15.93,-30.69 -15.70,-30.47 -15.47,-30.25 -15.97,-28.21 -16.46,-26.17 -16.87,-26.07 -17.29,-25.96 -17.71,-26.00 -18.13,-26.03 -18.52,-26.20 -18.91,-26.37 -19.23,-26.65 -19.55,-26.94 -19.75,-27.31 -19.96,-27.68 -20.04,-28.09 -20.12,-28.51 -20.06,-28.93 -20.01,-29.35 -19.82,-29.73 -19.63,-30.12 -19.33,-30.42 -19.03,-30.72 -18.65,-30.90 -18.27,-31.09 -17.84,-31.15 -17.42,-31.21 -17.01,-31.13 -16.59,-31.05 -16.22,-30.84 -15.85,-30.63 -15.57,-30.31 -15.28,-29.99 -15.11,-29.60 -14.95,-29.21 -14.91,-28.79 -14.88,-28.37 -14.98,-27.95 -15.08,-27.54 -15.31,-27.18 -15.54,-26.83 -15.87,-26.56 -16.21,-26.29 -16.61,-26.15 -17.00,-26.00 -17.43,-25.99 -17.85,-25.98 -18.26,-26.10 -18.67,-26.23 -19.01,-26.48 -19.36,-26.73 -19.60,-27.07 -19.85,-27.42 -19.98,-27.82 -20.10,-28.23 -20.09,-28.65 -20.08,-29.08 -19.93,-29.48 -19.78,-29.88 -19.52,-30.21 -19.25,-30.54 -19.39,-28.72 -19.52,-26.91 -19.69,-27.18 -19.86,-27.44 -19.97,-27.74 -20.07,-28.04 -20.09,-28.36 -20.12,-28.67 -20.07,-28.99 -20.02,-29.30 -19.90,-29.59 -19.78,-29.88 -19.59,-30.14 -19.40,-30.39 -19.16,-30.59 -18.91,-30.79 -18.63,-30.93 -18.34,-31.07 -18.03,-31.13 -17.72,-31.20 -17.40,-31.19 -17.09,-31.18 -16.78,-31.09 -16.48,-31.00 -16.20,-30.85 -15.93,-30.69 -15.70,-30.47 -15.47,-30.25 -12.85,-29.06 -10.22,-27.86 -9.00,-24.83 -7.78,-21.80 -6.87,-19.45 -5.97,-17.11 -4.91,-14.60 -3.86,-12.10 -2.25,-9.19 -0.64,-6.27 1.03,-4.26 2.70,-2.25 2.93,-1.89 3.16,-1.54 3.30,-1.14 3.44,-0.73 3.48,-0.31 3.52,0.10 3.45,0.52 3.39,0.94 3.23,1.33 3.06,1.73 2.81,2.07 2.56,2.41 2.23,2.68 1.91,2.95 1.53,3.14 1.14,3.32 0.73,3.41 0.31,3.50 -0.10,3.49 -0.53,3.48 -0.93,3.36 -1.34,3.25 -1.71,3.04 -2.08,2.83 -2.39,2.54 -2.70,2.25 -2.70,2.25 L -2.70,2.25 Z"></path></g>
  
  <g transform="translate(139.51251954355587 69.50575222271488) rotate(0 -17.501691830210262 -29.752876111357438)" stroke="none">
  
  <path fill="#ffffff" d="M -2.96,1.90 Q -2.96,1.90 -4.47,-0.44 -5.98,-2.79 -7.13,-4.64 -8.29,-6.50 -10.22,-9.67 -12.14,-12.83 -13.88,-15.55 -15.61,-18.26 -17.15,-20.96 -18.69,-23.65 -20.33,-26.63 -21.97,-29.60 -23.23,-32.32 -24.50,-35.05 -25.60,-37.18 -26.70,-39.31 -27.73,-41.29 -28.76,-43.27 -30.26,-45.92 -31.76,-48.57 -33.23,-51.19 -34.69,-53.82 -36.03,-55.80 -37.37,-57.78 -37.47,-58.08 -37.57,-58.38 -37.60,-58.70 -37.62,-59.01 -37.57,-59.33 -37.52,-59.64 -37.40,-59.93 -37.28,-60.22 -37.09,-60.48 -36.90,-60.73 -36.65,-60.93 -36.41,-61.13 -36.12,-61.27 -35.84,-61.41 -35.53,-61.47 -35.22,-61.53 -34.90,-61.52 -34.59,-61.51 -34.28,-61.42 -33.98,-61.34 -33.70,-61.18 -33.43,-61.02 -33.20,-60.80 -32.97,-60.59 -32.80,-60.32 -32.63,-60.05 -33.27,-58.29 -33.91,-56.53 -34.32,-56.42 -34.73,-56.30 -35.15,-56.33 -35.58,-56.36 -35.97,-56.52 -36.37,-56.67 -36.69,-56.95 -37.01,-57.23 -37.23,-57.59 -37.44,-57.96 -37.53,-58.38 -37.62,-58.79 -37.57,-59.21 -37.53,-59.63 -37.34,-60.02 -37.16,-60.40 -36.87,-60.71 -36.58,-61.02 -36.20,-61.21 -35.82,-61.41 -35.40,-61.48 -34.98,-61.54 -34.56,-61.47 -34.14,-61.40 -33.77,-61.20 -33.40,-61.00 -33.11,-60.69 -32.82,-60.38 -32.64,-59.99 -32.46,-59.60 -32.42,-59.18 -32.38,-58.76 -32.47,-58.34 -32.56,-57.93 -32.79,-57.57 -33.01,-57.20 -33.33,-56.93 -33.66,-56.66 -34.05,-56.50 -34.45,-56.35 -34.87,-56.33 -35.30,-56.31 -35.71,-56.42 -36.12,-56.54 -36.47,-56.78 -36.82,-57.02 -37.07,-57.36 -37.33,-57.70 -37.46,-58.10 -37.59,-58.51 -37.59,-58.93 -37.59,-59.36 -37.45,-59.76 -37.31,-60.16 -37.05,-60.50 -36.79,-60.84 -37.08,-59.31 -37.37,-57.78 -37.47,-58.08 -37.57,-58.38 -37.60,-58.70 -37.62,-59.01 -37.57,-59.33 -37.52,-59.64 -37.40,-59.93 -37.28,-60.22 -37.09,-60.48 -36.90,-60.73 -36.65,-60.93 -36.41,-61.13 -36.12,-61.27 -35.84,-61.41 -35.53,-61.47 -35.22,-61.53 -34.90,-61.52 -34.59,-61.51 -34.28,-61.42 -33.98,-61.34 -33.70,-61.18 -33.43,-61.02 -33.20,-60.80 -32.97,-60.59 -32.80,-60.32 -32.63,-60.05 -30.81,-59.14 -28.99,-58.23 -27.76,-55.89 -26.54,-53.56 -25.09,-50.98 -23.64,-48.41 -22.10,-45.59 -20.56,-42.78 -19.30,-40.33 -18.04,-37.87 -16.84,-35.28 -15.64,-32.69 -14.20,-30.07 -12.75,-27.44 -11.26,-24.83 -9.77,-22.21 -7.95,-19.35 -6.12,-16.48 -4.22,-13.35 -2.31,-10.23 -1.18,-8.41 -0.05,-6.60 1.45,-4.25 2.96,-1.90 3.14,-1.52 3.33,-1.14 3.42,-0.72 3.50,-0.30 3.49,0.11 3.48,0.53 3.36,0.94 3.25,1.35 3.04,1.72 2.83,2.09 2.53,2.40 2.24,2.71 1.89,2.94 1.53,3.17 1.13,3.30 0.73,3.44 0.30,3.48 -0.11,3.52 -0.53,3.45 -0.95,3.39 -1.34,3.22 -1.73,3.06 -2.07,2.81 -2.42,2.55 -2.69,2.23 -2.96,1.90 -2.96,1.90 L -2.96,1.90 Z"></path></g>
  
  <g transform="translate(126.09455580706134 39.75287611135741) rotate(0 8.459151051268265 -14.001353464168176)" stroke="none">
  <path fill="#ffffff" d="M -3.15,-1.57 Q -3.15,-1.57 -1.97,-3.92 -0.80,-6.27 0.20,-8.27 1.20,-10.28 2.39,-12.14 3.59,-14.00 5.72,-17.06 7.84,-20.13 9.71,-22.74 11.58,-25.34 13.24,-27.51 14.90,-29.68 15.13,-29.90 15.36,-30.12 15.64,-30.27 15.91,-30.43 16.22,-30.51 16.52,-30.59 16.84,-30.60 17.15,-30.61 17.46,-30.55 17.77,-30.48 18.06,-30.34 18.34,-30.20 18.59,-30.00 18.83,-29.80 19.02,-29.54 19.20,-29.29 19.32,-28.99 19.44,-28.70 19.49,-28.39 19.54,-28.07 19.51,-27.76 19.48,-27.44 19.38,-27.14 19.27,-26.84 19.10,-26.58 18.93,-26.31 17.55,-25.90 16.16,-25.48 15.78,-25.67 15.40,-25.85 15.09,-26.15 14.79,-26.45 14.60,-26.83 14.41,-27.21 14.35,-27.63 14.29,-28.05 14.36,-28.47 14.44,-28.88 14.65,-29.26 14.85,-29.63 15.17,-29.91 15.48,-30.20 15.87,-30.37 16.26,-30.54 16.68,-30.58 17.11,-30.62 17.52,-30.52 17.93,-30.42 18.29,-30.19 18.65,-29.97 18.92,-29.64 19.19,-29.31 19.34,-28.91 19.49,-28.51 19.50,-28.09 19.52,-27.66 19.40,-27.26 19.28,-26.85 19.03,-26.50 18.78,-26.15 18.44,-25.90 18.10,-25.65 17.69,-25.53 17.29,-25.40 16.86,-25.41 16.44,-25.41 16.04,-25.56 15.64,-25.70 15.30,-25.97 14.97,-26.23 14.74,-26.59 14.51,-26.94 14.40,-27.35 14.30,-27.77 14.33,-28.19 14.36,-28.61 14.52,-29.00 14.69,-29.40 14.97,-29.71 15.25,-30.03 15.62,-30.24 15.99,-30.46 16.41,-30.54 16.82,-30.62 15.86,-30.15 14.90,-29.68 15.13,-29.90 15.36,-30.12 15.63,-30.27 15.91,-30.43 16.22,-30.51 16.52,-30.59 16.84,-30.60 17.15,-30.61 17.46,-30.55 17.77,-30.48 18.06,-30.34 18.34,-30.20 18.58,-30.00 18.83,-29.80 19.02,-29.54 19.20,-29.29 19.32,-28.99 19.44,-28.70 19.49,-28.39 19.54,-28.07 19.51,-27.76 19.48,-27.44 19.38,-27.14 19.27,-26.85 19.10,-26.58 18.93,-26.31 18.74,-24.52 18.56,-22.72 17.04,-20.75 15.51,-18.78 13.59,-15.95 11.66,-13.12 9.58,-10.12 7.50,-7.12 6.50,-5.12 5.49,-3.12 4.32,-0.77 3.15,1.57 2.91,1.92 2.68,2.28 2.36,2.57 2.05,2.85 1.68,3.06 1.31,3.26 0.90,3.37 0.49,3.48 0.06,3.49 -0.35,3.50 -0.76,3.41 -1.18,3.31 -1.56,3.12 -1.94,2.93 -2.26,2.66 -2.59,2.38 -2.83,2.04 -3.08,1.69 -3.24,1.30 -3.40,0.90 -3.46,0.48 -3.52,0.06 -3.47,-0.35 -3.43,-0.77 -3.29,-1.17 -3.15,-1.57 -3.15,-1.57 L -3.15,-1.57 Z"></path></g>
  
  <g transform="translate(133.09523253914546 117.92709961962987) rotate(0 19.83525074090494 -32.66982474972579)" stroke="none">
  <path fill="#ffffff" d="M -3.15,-1.57 Q -3.15,-1.57 -1.64,-4.59 -0.13,-7.61 1.20,-10.11 2.53,-12.61 4.21,-15.01 5.89,-17.41 7.40,-19.54 8.90,-21.66 10.35,-23.85 11.79,-26.04 13.05,-28.11 14.32,-30.19 15.56,-32.13 16.81,-34.07 18.01,-35.91 19.21,-37.74 20.92,-40.61 22.63,-43.47 24.13,-46.13 25.63,-48.79 27.12,-51.22 28.61,-53.65 30.19,-56.50 31.76,-59.35 32.94,-61.19 34.12,-63.04 35.17,-64.26 36.23,-65.48 36.42,-65.74 36.61,-65.99 36.85,-66.19 37.10,-66.39 37.38,-66.53 37.67,-66.66 37.98,-66.72 38.29,-66.79 38.61,-66.77 38.92,-66.76 39.23,-66.67 39.53,-66.58 39.81,-66.42 40.08,-66.27 40.31,-66.05 40.54,-65.83 40.70,-65.56 40.87,-65.29 40.97,-64.99 41.07,-64.69 41.10,-64.37 41.12,-64.06 41.07,-63.75 41.02,-63.43 40.90,-63.14 40.77,-62.85 40.17,-62.31 39.56,-61.76 39.15,-61.66 38.74,-61.55 38.31,-61.58 37.89,-61.61 37.50,-61.78 37.10,-61.94 36.79,-62.22 36.47,-62.50 36.25,-62.87 36.04,-63.24 35.96,-63.66 35.87,-64.07 35.93,-64.49 35.98,-64.92 36.17,-65.30 36.35,-65.68 36.65,-65.98 36.95,-66.29 37.33,-66.48 37.70,-66.67 38.13,-66.73 38.55,-66.79 38.96,-66.72 39.38,-66.64 39.75,-66.44 40.13,-66.23 40.41,-65.92 40.70,-65.60 40.87,-65.21 41.04,-64.82 41.08,-64.40 41.12,-63.98 41.02,-63.57 40.92,-63.15 40.70,-62.79 40.47,-62.43 40.14,-62.16 39.81,-61.89 39.41,-61.74 39.02,-61.59 38.59,-61.58 38.17,-61.56 37.76,-61.68 37.35,-61.80 37.01,-62.05 36.66,-62.29 36.41,-62.64 36.16,-62.98 36.03,-63.38 35.90,-63.79 35.91,-64.21 35.91,-64.64 36.06,-65.04 36.20,-65.44 36.46,-65.77 36.73,-66.11 36.48,-65.80 36.23,-65.48 36.42,-65.74 36.61,-65.99 36.85,-66.19 37.10,-66.39 37.38,-66.53 37.67,-66.66 37.98,-66.72 38.29,-66.79 38.61,-66.77 38.92,-66.76 39.23,-66.67 39.53,-66.58 39.81,-66.42 40.08,-66.27 40.31,-66.05 40.54,-65.83 40.70,-65.56 40.87,-65.29 40.97,-64.99 41.07,-64.69 41.10,-64.37 41.12,-64.06 41.07,-63.75 41.02,-63.43 40.90,-63.14 40.77,-62.85 40.40,-61.02 40.02,-59.20 38.50,-56.75 36.97,-54.31 35.85,-52.24 34.73,-50.17 33.28,-47.81 31.83,-45.44 30.30,-42.73 28.77,-40.02 26.93,-36.95 25.10,-33.88 23.92,-32.08 22.74,-30.28 21.54,-28.40 20.33,-26.52 19.00,-24.34 17.67,-22.16 16.16,-19.87 14.65,-17.58 13.15,-15.47 11.65,-13.35 10.19,-11.32 8.74,-9.29 7.45,-6.87 6.16,-4.46 4.65,-1.44 3.15,1.57 2.91,1.92 2.68,2.28 2.36,2.57 2.05,2.85 1.68,3.06 1.31,3.26 0.90,3.37 0.49,3.48 0.06,3.49 -0.35,3.50 -0.76,3.41 -1.18,3.31 -1.56,3.12 -1.94,2.93 -2.26,2.66 -2.59,2.38 -2.83,2.04 -3.08,1.69 -3.24,1.30 -3.40,0.90 -3.46,0.48 -3.52,0.06 -3.47,-0.35 -3.43,-0.77 -3.29,-1.17 -3.15,-1.57 -3.15,-1.57 L -3.15,-1.57 Z"></path></g>
  
  <g transform="translate(92.84134132966187 135.42879144984016) rotate(0 35.878468251931 -2.0418640468578815)" stroke="none">
  <path fill="#ffffff" d="M 0,-3.52 Q 0,-3.52 2.51,-3.52 5.03,-3.52 8.35,-3.52 11.66,-3.52 14.65,-3.52 17.64,-3.52 20.57,-3.52 23.50,-3.52 26.01,-3.52 28.53,-3.52 31.06,-3.52 33.59,-3.52 35.93,-3.75 38.27,-3.99 40.47,-4.04 42.66,-4.08 45.22,-4.09 47.78,-4.10 50.82,-4.33 53.85,-4.57 56.81,-4.85 59.76,-5.14 62.38,-5.20 65.01,-5.26 67.88,-5.97 70.74,-6.67 71.06,-6.68 71.37,-6.70 71.68,-6.64 71.99,-6.57 72.28,-6.44 72.57,-6.30 72.81,-6.10 73.06,-5.90 73.25,-5.65 73.44,-5.40 73.56,-5.11 73.69,-4.82 73.74,-4.50 73.79,-4.19 73.77,-3.88 73.74,-3.56 73.64,-3.26 73.54,-2.96 73.38,-2.69 73.21,-2.42 72.98,-2.20 72.75,-1.98 72.48,-1.82 72.21,-1.67 71.90,-1.58 71.60,-1.49 70.17,-2.28 68.74,-3.07 68.65,-3.49 68.55,-3.90 68.59,-4.32 68.63,-4.75 68.80,-5.13 68.97,-5.52 69.26,-5.84 69.55,-6.15 69.92,-6.35 70.30,-6.56 70.71,-6.63 71.13,-6.71 71.55,-6.64 71.97,-6.58 72.35,-6.39 72.73,-6.19 73.03,-5.89 73.32,-5.58 73.51,-5.20 73.69,-4.82 73.74,-4.39 73.79,-3.97 73.71,-3.56 73.62,-3.14 73.41,-2.77 73.19,-2.41 72.87,-2.13 72.55,-1.85 72.16,-1.68 71.77,-1.52 71.34,-1.49 70.92,-1.46 70.51,-1.57 70.10,-1.68 69.74,-1.91 69.39,-2.15 69.13,-2.48 68.86,-2.82 68.72,-3.22 68.58,-3.62 68.58,-4.04 68.57,-4.47 68.70,-4.87 68.83,-5.28 69.08,-5.62 69.34,-5.96 69.68,-6.20 70.03,-6.45 70.44,-6.57 70.85,-6.69 71.27,-6.67 71.70,-6.65 72.10,-6.50 72.49,-6.35 72.82,-6.08 73.15,-5.81 71.94,-6.24 70.74,-6.67 71.06,-6.68 71.37,-6.70 71.68,-6.64 71.99,-6.57 72.28,-6.44 72.57,-6.30 72.81,-6.10 73.06,-5.90 73.25,-5.65 73.44,-5.40 73.56,-5.11 73.69,-4.82 73.74,-4.51 73.79,-4.19 73.77,-3.88 73.74,-3.56 73.64,-3.26 73.55,-2.96 73.38,-2.69 73.21,-2.42 72.98,-2.20 72.75,-1.98 72.48,-1.82 72.21,-1.67 71.90,-1.58 71.60,-1.49 70.33,-0.37 69.06,0.74 66.48,1.26 63.90,1.78 61.63,1.84 59.37,1.91 56.90,2.18 54.44,2.44 51.80,2.69 49.16,2.93 46.91,2.94 44.67,2.94 41.68,2.99 38.69,3.03 36.14,3.27 33.60,3.52 31.06,3.52 28.53,3.52 26.01,3.52 23.50,3.52 20.57,3.52 17.64,3.52 14.65,3.52 11.66,3.52 8.35,3.52 5.03,3.52 2.51,3.52 0,3.52 -0.42,3.47 -0.84,3.41 -1.23,3.26 -1.63,3.11 -1.98,2.87 -2.33,2.63 -2.61,2.31 -2.89,2.00 -3.09,1.62 -3.29,1.24 -3.39,0.83 -3.49,0.42 -3.49,-0.00 -3.49,-0.42 -3.39,-0.83 -3.29,-1.24 -3.09,-1.62 -2.89,-2.00 -2.61,-2.31 -2.33,-2.63 -1.98,-2.87 -1.63,-3.11 -1.23,-3.26 -0.84,-3.41 -0.42,-3.47 0.00,-3.52 0.00,-3.52 L 0,-3.52 Z"></path></g>
  
  <g transform="translate(127.84472499008234 136.59557090518746) rotate(0 6.41728700441044 13.126268872657704)" stroke="none">
  <path fill="#ffffff" d="M 3.25,-1.35 Q 3.25,-1.35 4.08,0.65 4.92,2.66 6.29,5.28 7.65,7.90 8.75,9.90 9.85,11.91 10.89,13.88 11.93,15.86 13.12,18.35 14.31,20.84 14.93,22.78 15.56,24.73 15.74,25.11 15.93,25.49 15.98,25.91 16.04,26.34 15.96,26.75 15.87,27.17 15.66,27.54 15.45,27.91 15.13,28.19 14.81,28.47 14.42,28.64 14.03,28.80 13.61,28.83 13.18,28.86 12.77,28.76 12.36,28.65 12.00,28.42 11.65,28.19 11.38,27.86 11.12,27.53 10.97,27.13 10.83,26.73 10.82,26.30 10.81,25.88 10.94,25.47 11.07,25.07 11.32,24.72 11.57,24.38 11.91,24.13 12.26,23.89 12.67,23.76 13.08,23.64 13.50,23.66 13.92,23.67 14.32,23.82 14.72,23.97 15.05,24.24 15.38,24.51 15.61,24.87 15.83,25.23 15.93,25.64 16.03,26.05 16.00,26.47 15.96,26.90 15.79,27.29 15.62,27.68 15.33,27.99 15.05,28.31 14.67,28.51 14.30,28.72 13.88,28.80 13.47,28.87 13.05,28.81 12.63,28.75 12.25,28.56 11.87,28.37 11.57,28.07 11.27,27.77 11.27,27.77 11.27,27.77 9.71,26.00 8.14,24.24 7.13,22.30 6.12,20.36 4.87,17.77 3.61,15.19 2.44,13.02 1.26,10.86 -0.15,8.12 -1.57,5.38 -2.41,3.36 -3.25,1.35 -3.36,0.94 -3.48,0.53 -3.49,0.11 -3.50,-0.31 -3.42,-0.72 -3.33,-1.14 -3.14,-1.52 -2.96,-1.90 -2.69,-2.23 -2.41,-2.55 -2.07,-2.81 -1.73,-3.06 -1.34,-3.22 -0.95,-3.39 -0.53,-3.45 -0.11,-3.52 0.30,-3.48 0.73,-3.44 1.13,-3.30 1.53,-3.16 1.89,-2.94 2.24,-2.71 2.54,-2.40 2.83,-2.09 3.04,-1.72 3.25,-1.35 3.25,-1.35 L 3.25,-1.35 Z"></path></g>
  
  <g transform="translate(56.671178213893995 104.50913588313534) rotate(0 19.25186101323129 33.25321447739947)" stroke="none">
  <path fill="#ffffff" d="M 3.22,-1.41 Q 3.22,-1.41 4.40,1.27 5.57,3.95 6.55,6.06 7.54,8.17 8.62,10.39 9.71,12.62 10.79,14.48 11.86,16.33 13.17,18.47 14.47,20.62 15.74,22.96 17.02,25.30 18.20,27.42 19.39,29.54 20.56,31.61 21.74,33.69 22.91,35.74 24.08,37.80 25.24,39.84 26.41,41.89 27.55,43.71 28.68,45.53 30.19,48.02 31.70,50.51 33.77,53.54 35.83,56.57 37.35,58.80 38.88,61.03 39.79,62.36 40.70,63.69 40.92,64.05 41.14,64.42 41.26,64.82 41.39,65.23 41.41,65.65 41.43,66.08 41.36,66.49 41.28,66.91 41.10,67.30 40.93,67.68 40.66,68.02 40.40,68.35 40.07,68.61 39.73,68.87 39.34,69.05 38.96,69.22 38.54,69.29 38.12,69.37 37.70,69.34 37.27,69.32 36.87,69.19 36.46,69.06 36.10,68.84 35.74,68.62 35.44,68.32 35.14,68.02 34.58,66.26 34.01,64.51 33.83,64.12 33.64,63.74 33.59,63.32 33.54,62.90 33.63,62.48 33.71,62.06 33.93,61.70 34.14,61.33 34.46,61.05 34.78,60.77 35.17,60.61 35.56,60.44 35.99,60.42 36.41,60.39 36.82,60.49 37.23,60.60 37.59,60.84 37.94,61.07 38.21,61.40 38.47,61.74 38.61,62.14 38.75,62.54 38.76,62.97 38.76,63.39 38.63,63.79 38.50,64.20 38.25,64.54 38.00,64.88 37.65,65.13 37.30,65.37 36.89,65.49 36.49,65.61 36.06,65.59 35.64,65.57 35.24,65.42 34.84,65.27 34.51,65.00 34.19,64.73 33.96,64.37 33.74,64.01 33.64,63.59 33.54,63.18 33.58,62.76 33.62,62.33 33.80,61.95 33.97,61.56 34.26,61.24 34.55,60.93 34.92,60.73 35.29,60.52 35.71,60.45 36.13,60.37 36.55,60.44 36.97,60.50 37.35,60.69 37.73,60.89 38.02,61.19 38.32,61.50 38.32,61.50 38.32,61.50 39.51,62.59 40.70,63.69 40.92,64.05 41.14,64.42 41.26,64.82 41.39,65.23 41.41,65.65 41.43,66.08 41.36,66.49 41.28,66.91 41.10,67.30 40.93,67.68 40.67,68.02 40.40,68.35 40.07,68.61 39.73,68.87 39.34,69.05 38.96,69.22 38.54,69.29 38.12,69.37 37.70,69.34 37.27,69.32 36.87,69.19 36.46,69.06 36.10,68.84 35.74,68.62 35.44,68.32 35.14,68.02 34.68,67.37 34.22,66.72 32.83,64.83 31.44,62.93 29.74,60.33 28.04,57.73 26.86,55.95 25.68,54.17 24.19,51.71 22.70,49.25 21.50,47.32 20.29,45.38 19.12,43.33 17.95,41.28 16.78,39.22 15.61,37.16 14.42,35.06 13.24,32.97 12.03,30.82 10.83,28.66 9.64,26.47 8.45,24.27 7.11,22.07 5.77,19.86 4.57,17.78 3.37,15.71 2.27,13.43 1.16,11.15 0.14,8.96 -0.87,6.77 -2.05,4.09 -3.22,1.41 -3.34,1.00 -3.47,0.59 -3.49,0.17 -3.51,-0.24 -3.43,-0.66 -3.35,-1.08 -3.17,-1.46 -2.99,-1.85 -2.72,-2.18 -2.46,-2.51 -2.12,-2.77 -1.79,-3.03 -1.40,-3.20 -1.01,-3.37 -0.59,-3.44 -0.17,-3.51 0.24,-3.48 0.67,-3.45 1.07,-3.32 1.47,-3.19 1.84,-2.97 2.20,-2.74 2.49,-2.44 2.79,-2.14 3.01,-1.77 3.22,-1.41 3.22,-1.41 L 3.22,-1.41 Z"></path></g>
  
  <g transform="translate(70.08914195038852 138.92912981588216) rotate(0 -9.625930506615617 15.168132919515585)" stroke="none">
  <path fill="#ffffff" d="M 2.99,1.84 Q 2.99,1.84 1.65,4.02 0.31,6.20 -0.71,8.07 -1.75,9.93 -3.67,13.29 -5.58,16.65 -6.94,18.97 -8.29,21.28 -9.52,23.19 -10.76,25.09 -12.05,27.27 -13.35,29.46 -15.62,31.36 -17.89,33.27 -18.13,33.47 -18.37,33.68 -18.65,33.82 -18.93,33.97 -19.24,34.04 -19.55,34.11 -19.87,34.11 -20.18,34.10 -20.49,34.02 -20.80,33.94 -21.07,33.79 -21.35,33.64 -21.59,33.43 -21.82,33.21 -22.00,32.95 -22.17,32.69 -22.28,32.39 -22.39,32.09 -22.42,31.78 -22.46,31.46 -22.41,31.15 -22.37,30.83 -22.25,30.54 -22.14,30.24 -21.95,29.99 -21.77,29.73 -22.09,30.37 -22.41,31.01 -22.27,30.61 -22.12,30.21 -21.86,29.88 -21.59,29.55 -21.23,29.32 -20.88,29.09 -20.46,28.98 -20.05,28.88 -19.63,28.91 -19.21,28.95 -18.81,29.11 -18.42,29.28 -18.11,29.56 -17.79,29.85 -17.58,30.21 -17.37,30.58 -17.29,31.00 -17.20,31.42 -17.26,31.84 -17.32,32.26 -17.50,32.64 -17.69,33.02 -17.99,33.32 -18.29,33.63 -18.67,33.82 -19.05,34.01 -19.47,34.07 -19.89,34.12 -20.31,34.05 -20.73,33.97 -21.10,33.76 -21.47,33.55 -21.75,33.24 -22.04,32.92 -22.21,32.53 -22.38,32.14 -22.41,31.72 -22.45,31.29 -22.35,30.88 -22.25,30.47 -22.02,30.11 -21.79,29.75 -21.46,29.48 -21.13,29.22 -20.73,29.07 -20.33,28.92 -19.91,28.91 -19.48,28.89 -19.08,29.02 -18.67,29.14 -18.32,29.39 -17.98,29.63 -17.73,29.98 -17.48,30.32 -17.35,30.73 -17.23,31.14 -17.56,32.20 -17.89,33.27 -18.13,33.47 -18.37,33.68 -18.65,33.82 -18.93,33.97 -19.24,34.04 -19.55,34.11 -19.87,34.11 -20.18,34.10 -20.49,34.02 -20.80,33.94 -21.07,33.79 -21.35,33.64 -21.59,33.43 -21.82,33.21 -22.00,32.95 -22.17,32.69 -22.28,32.39 -22.39,32.09 -22.42,31.78 -22.46,31.46 -22.41,31.15 -22.37,30.83 -22.26,30.54 -22.14,30.24 -21.96,29.99 -21.77,29.73 -20.61,27.83 -19.45,25.93 -18.05,23.58 -16.65,21.23 -15.47,19.42 -14.30,17.61 -12.92,15.25 -11.55,12.90 -9.73,9.70 -7.90,6.51 -6.79,4.51 -5.68,2.51 -4.34,0.33 -2.99,-1.84 -2.73,-2.17 -2.47,-2.51 -2.13,-2.76 -1.79,-3.02 -1.40,-3.19 -1.02,-3.37 -0.60,-3.44 -0.18,-3.51 0.23,-3.48 0.66,-3.45 1.06,-3.32 1.47,-3.20 1.83,-2.97 2.19,-2.75 2.49,-2.45 2.78,-2.15 3.00,-1.78 3.22,-1.41 3.34,-1.01 3.46,-0.60 3.49,-0.18 3.51,0.24 3.43,0.65 3.35,1.07 3.17,1.46 2.99,1.84 2.99,1.84 L 2.99,1.84 Z"></path></g>
  
  <g transform="translate(157.0142113737661 82.9237159592094) rotate(0 18.96016614939444 -3.792033229878882)" stroke="none">
  <path fill="#ffffff" d="M -1.11,-3.34 Q -1.11,-3.34 0.39,-3.84 1.90,-4.34 4.31,-5.07 6.72,-5.79 10.00,-6.32 13.28,-6.86 16.42,-7.43 19.57,-8.01 21.75,-8.65 23.93,-9.29 26.13,-9.82 28.33,-10.34 30.59,-10.42 32.85,-10.50 35.34,-10.35 37.83,-10.20 38.25,-10.15 38.68,-10.09 39.06,-9.91 39.44,-9.72 39.74,-9.42 40.04,-9.12 40.23,-8.74 40.42,-8.36 40.48,-7.94 40.54,-7.52 40.46,-7.10 40.38,-6.68 40.18,-6.31 39.97,-5.94 39.65,-5.66 39.34,-5.37 38.95,-5.20 38.56,-5.03 38.14,-5.00 37.71,-4.96 37.30,-5.06 36.89,-5.16 36.53,-5.39 36.17,-5.62 35.90,-5.95 35.63,-6.28 35.49,-6.67 35.34,-7.07 35.32,-7.50 35.31,-7.92 35.43,-8.33 35.56,-8.74 35.80,-9.08 36.05,-9.43 36.39,-9.68 36.74,-9.93 37.14,-10.05 37.55,-10.18 37.97,-10.17 38.40,-10.16 38.80,-10.02 39.20,-9.87 39.53,-9.61 39.86,-9.34 40.09,-8.98 40.32,-8.63 40.43,-8.21 40.53,-7.80 40.50,-7.38 40.47,-6.96 40.30,-6.56 40.13,-6.17 39.85,-5.86 39.57,-5.54 39.20,-5.33 38.83,-5.12 38.41,-5.04 38.00,-4.95 38.00,-4.95 38.00,-4.95 36.54,-4.45 35.08,-3.94 31.97,-3.65 28.85,-3.35 26.76,-2.71 24.67,-2.06 21.57,-1.46 18.47,-0.86 16.20,-0.35 13.92,0.14 11.36,0.54 8.80,0.93 6.46,1.63 4.13,2.33 2.62,2.83 1.11,3.34 0.69,3.42 0.28,3.51 -0.14,3.49 -0.56,3.47 -0.97,3.35 -1.38,3.23 -1.74,3.02 -2.11,2.81 -2.42,2.52 -2.72,2.22 -2.95,1.86 -3.18,1.50 -3.31,1.10 -3.45,0.70 -3.48,0.27 -3.51,-0.14 -3.45,-0.56 -3.38,-0.98 -3.21,-1.37 -3.04,-1.76 -2.79,-2.10 -2.53,-2.44 -2.20,-2.70 -1.88,-2.97 -1.49,-3.15 -1.11,-3.34 -1.11,-3.34 L -1.11,-3.34 Z"></path></g>
</svg>